HIERARCHY
ROOT Hips
{
  OFFSET 43.0842 91.1655 101.099
  CHANNELS 6 Xposition Yposition Zposition Zrotation Xrotation Yrotation
  JOINT LeftUpLeg
  {
    OFFSET 8.64259 1.95398 -2.38835
    CHANNELS 3 Zrotation Xrotation Yrotation
    JOINT LeftLeg
    {
      OFFSET 43.7702 0 0
      CHANNELS 3 Zrotation Xrotation Yrotation
      JOINT LeftFoot
      {
        OFFSET 40.6238 0 0
        CHANNELS 3 Zrotation Xrotation Yrotation
        JOINT LeftToeBase
        {
          OFFSET 12.7242 0 0
          CHANNELS 3 Zrotation Xrotation Yrotation
          End Site
          {
            OFFSET 0 0 0
          }
        }
      }
    }
  }
  JOINT RightUpLeg
  {
    OFFSET -8.2249 1.95398 -2.59336
    CHANNELS 3 Zrotation Xrotation Yrotation
    JOINT RightLeg
    {
      OFFSET 43.5653 0 0
      CHANNELS 3 Zrotation Xrotation Yrotation
      JOINT RightFoot
      {
        OFFSET 40.6238 0 0
        CHANNELS 3 Zrotation Xrotation Yrotation
        JOINT RightToeBase
        {
          OFFSET 12.7242 0 0
          CHANNELS 3 Zrotation Xrotation Yrotation
          End Site
          {
            OFFSET 0 0 0
          }
        }
      }
    }
  }
  JOINT Spine
  {
    OFFSET 0.165834 0.87714 6.61349
    CHANNELS 3 Zrotation Xrotation Yrotation
    JOINT Spine1
    {
      OFFSET 7.38963 1.71661e-005 0
      CHANNELS 3 Zrotation Xrotation Yrotation
      JOINT Spine2
      {
        OFFSET 11.9445 1.14441e-005 0
        CHANNELS 3 Zrotation Xrotation Yrotation
        JOINT Spine3
        {
          OFFSET 14.7254 4.19617e-005 0
          CHANNELS 3 Zrotation Xrotation Yrotation
          JOINT Spine4
          {
            OFFSET 10.9679 0 0
            CHANNELS 3 Zrotation Xrotation Yrotation
            JOINT RightShoulder
            {
              OFFSET 2.46616 -1.6653 3.69651
              CHANNELS 3 Zrotation Xrotation Yrotation
              JOINT RightArm
              {
                OFFSET 13.0012 0 0
                CHANNELS 3 Zrotation Xrotation Yrotation
                JOINT RightForeArm
                {
                  OFFSET 28.7848 1.52588e-005 0
                  CHANNELS 3 Zrotation Xrotation Yrotation
                  JOINT RightHand
                  {
                    OFFSET 26.5688 1.52588e-005 0
                    CHANNELS 3 Zrotation Xrotation Yrotation
                    End Site
                    {
                      OFFSET 0 0 0
                    }
                  }
                }
              }
            }
            JOINT LeftShoulder
            {
              OFFSET 2.38034 -1.29275 -3.7523
              CHANNELS 3 Zrotation Xrotation Yrotation
              JOINT LeftArm
              {
                OFFSET 16.3182 6.10351e-005 0
                CHANNELS 3 Zrotation Xrotation Yrotation
                JOINT LeftForeArm
                {
                  OFFSET 27.0901 0 0
                  CHANNELS 3 Zrotation Xrotation Yrotation
                  JOINT LeftHand
                  {
                    OFFSET 24.5451 1.52588e-005 0
                    CHANNELS 3 Zrotation Xrotation Yrotation
                    End Site
                    {
                      OFFSET 0 0 0
                    }
                  }
                }
              }
            }
            JOINT Neck
            {
              OFFSET 5.0226 -0.0266342 0
              CHANNELS 3 Zrotation Xrotation Yrotation
              JOINT Head
              {
                OFFSET 6.69364 2.86102e-005 0
                CHANNELS 3 Zrotation Xrotation Yrotation
                End Site
                {
                  OFFSET 0 0 0
                }
              }
            }
          }
        }
      }
    }
  }
}
MOTION
Frames:	9
Frame Time:	0.0333333
32.9358 88.3284 122.511 96.1255 1.37789 90.9964 -165.717 4.34428 105.348 -35.5573 21.0358 -1.84443 66.3122 10.0765 18.8072 37.4591 8.39004 5.44071 168.407 25.8078 84.1505 -40.3829 -6.56277 4.30999 62.2731 0.886982 -9.72004 33.0406 -3.04335 2.15404 -0.886575 7.40482 -89.7559 12.0699 -1.64718 0.667676 0.399824 -1.61618 0.739532 -22.1436 -1.77166 0.14163 -2.13092 -1.77164 0.141627 86.1419 -61.3678 -103.635 -15.6806 2.23948 -37.225 -27.6907 15.0192 -35.9895 -22.3403 -5.1646 4.68007 -105.516 -57.4013 59.1945 10.33 25.0313 -62.5529 19.8165 1.77287 -99.3588 23.6607 3.0489 8.65606 -32.5829 -12.9848 -7.8686 8.86192 -15.5874 -9.69367 
32.7511 88.5088 122.486 95.9522 1.94656 90.7652 -166.142 4.13749 104.899 -34.4746 19.9388 -1.67699 66.0278 9.55721 18.1047 37.9602 9.42099 4.59744 168.598 25.6222 83.9305 -39.7445 -5.51778 4.20067 62.1328 0.971069 -9.10292 32.8231 -2.85406 1.91066 -0.931786 7.38501 -89.6933 12.1107 -1.70727 0.800096 0.440605 -1.6704 0.874464 -22.1032 -1.8688 0.249841 -2.09058 -1.86879 0.249839 86.1446 -61.6383 -103.566 -15.6826 3.21097 -38.0198 -27.441 15.2765 -36.5546 -21.2076 -4.75575 3.75632 -103.552 -56.0089 61.2846 9.95439 24.5547 -63.8113 18.015 2.55059 -98.7016 23.9382 3.09894 7.99456 -32.1241 -12.7482 -9.403 9.37798 -15.4459 -8.68846 
32.6479 88.5057 122.37 96.0613 1.90531 90.5634 -166.101 3.69837 104.667 -33.8092 19.9207 -1.9297 66.003 9.23567 18.6553 38.1054 9.72961 4.31518 168.632 25.4503 83.632 -39.6437 -6.15288 4.00496 62.2659 0.58589 -8.94805 33.0797 -3.28577 2.88545 -0.909278 7.39054 -89.6597 12.0997 -1.64666 0.860326 0.429427 -1.60718 0.931963 -22.1136 -1.82908 0.325524 -2.10096 -1.82906 0.325527 86.4902 -60.9009 -103.28 -14.8336 3.75665 -38.7674 -27.5955 15.8995 -36.2969 -20.9285 -4.6422 3.2618 -102.205 -55.1437 62.792 9.12357 24.3734 -64.6559 19.2492 3.4805 -97.5108 24.9471 3.33253 8.61408 -31.0291 -12.7795 -9.90674 8.46741 -15.3267 -8.32061 
32.4408 88.5453 122.163 96.1049 1.87443 90.4592 -166.137 3.37548 104.435 -33.2317 19.6772 -2.01441 66.1877 9.73694 18.7005 37.9368 9.62742 4.05349 168.51 25.4171 83.3941 -39.202 -5.34897 4.07729 62.169 0.574801 -8.25591 33.2044 -3.37507 2.96842 -0.850869 7.39011 -89.6546 12.0999 -1.52816 0.857527 0.42951 -1.48895 0.923961 -22.1123 -1.71522 0.358502 -2.09964 -1.71522 0.358503 86.9279 -60.3735 -102.815 -14.2394 4.11693 -39.2635 -27.6492 17.0067 -36.5165 -21.6236 -4.87742 3.70328 -101.917 -54.8453 63.0767 8.56611 23.8559 -64.6727 18.8021 4.10285 -97.0617 24.5907 3.23803 7.93382 -30.1869 -13.2217 -9.78451 7.63421 -15.6627 -8.81632 
32.2857 88.598 121.986 96.259 2.19745 90.5017 -166.071 3.47465 104.58 -33.3238 19.8323 -1.95878 66.2032 9.70188 18.3365 38.3362 10.3945 3.43327 168.053 25.2243 83.1462 -38.9279 -5.31595 4.37429 62.0258 0.679944 -8.12919 32.9261 -3.33363 3.30433 -0.850643 7.40533 -89.7131 12.0689 -1.55553 0.743028 0.398673 -1.52132 0.810776 -22.1436 -1.7069 0.241065 -2.131 -1.70691 0.241054 87.8034 -59.7886 -101.76 -13.7062 4.55121 -40.1779 -27.3861 17.7719 -36.8254 -21.2632 -4.72905 3.06668 -102.16 -55.1665 62.8621 8.21659 23.7384 -64.2538 18.9248 3.92094 -97.3743 23.844 3.08423 8.33578 -29.046 -13.6423 -9.16879 7.07518 -15.8495 -8.75624 
32.1331 88.5784 121.813 96.5431 2.00966 90.6546 -165.883 3.42563 104.758 -33.509 18.9516 -1.94712 66.224 9.46229 17.7441 39.0378 11.6473 2.47173 168.056 24.9396 83.1686 -38.6664 -6.06413 4.34395 61.7992 0.87532 -8.35778 32.9071 -3.28225 3.16712 -0.764978 7.44047 -89.7585 11.9974 -1.40693 0.634726 0.327064 -1.37764 0.696031 -22.214 -1.53265 0.182451 -2.20138 -1.53264 0.182449 88.3594 -59.2931 -101.108 -12.7853 5.73828 -40.3733 -27.7334 16.4441 -37.7013 -20.9541 -4.64614 3.20112 -102.401 -55.2595 62.567 7.84653 23.7286 -64.2605 18.7167 3.94979 -97.1384 23.3802 2.98068 8.14763 -28.6819 -13.9776 -9.32566 8.20386 -16.1853 -8.19208 
32.0038 88.5518 121.589 96.8166 1.66679 90.4552 -165.902 3.18595 104.373 -33.7965 17.9502 -1.98877 66.1125 8.92456 17.3424 39.4322 12.4193 1.6923 168.062 25.0143 82.8968 -38.8535 -6.22462 4.15756 61.6789 0.85257 -8.16516 32.7741 -3.1684 3.01807 -0.672329 7.47575 -89.7588 11.926 -1.22318 0.612923 0.255478 -1.195 0.666158 -22.2841 -1.35084 0.216916 -2.27142 -1.3508 0.216922 88.8607 -58.7747 -100.529 -12.2071 6.17533 -40.3998 -28.3763 16.0979 -38.3467 -20.424 -4.49667 3.33215 -103.045 -55.5709 61.8056 7.81878 23.807 -63.8026 18.6141 4.10447 -97.1714 23.8358 3.08772 8.65863 -28.3382 -14.2267 -9.75621 9.74519 -16.481 -7.65781 
31.8514 88.4522 121.349 96.9839 1.50561 90.2541 -165.999 3.14822 104.021 -34.1941 18.0317 -2.04964 66.1427 8.97955 17.7624 39.5763 12.5954 1.68088 168.273 25.2506 82.657 -39.2508 -6.89067 3.87889 61.66 0.908482 -8.4471 32.5377 -2.87643 2.46838 -0.618264 7.50762 -89.7628 11.8618 -1.11774 0.592593 0.191166 -1.0906 0.641216 -22.3476 -1.24414 0.229236 -2.33495 -1.24418 0.22922 88.885 -58.0427 -100.653 -11.445 6.87606 -39.987 -28.3833 15.4138 -39.4815 -20.6721 -4.6336 4.43254 -103.738 -56.0359 61.0431 8.19754 23.8564 -63.5282 18.4694 4.05514 -97.1354 23.6226 3.0383 8.50398 -27.4185 -14.5437 -9.18906 10.5524 -16.6973 -7.68939 
31.7664 88.474 121.192 97.235 1.25078 90.3582 -165.953 2.90317 103.962 -34.4928 19.1264 -2.00926 65.5217 7.74322 17.3628 40.1424 12.9606 2.53688 168.484 25.0249 82.7302 -39.0742 -6.94114 3.73845 61.4888 1.11189 -8.3745 32.2662 -2.55448 1.89595 -0.56096 7.53035 -89.7976 11.8157 -1.02034 0.512141 0.145041 -0.996823 0.556542 -22.3932 -1.12708 0.181776 -2.38053 -1.12707 0.181773 89.2711 -57.9427 -100.135 -11.0631 7.03183 -40.203 -27.9792 15.8243 -39.943 -20.4248 -4.50641 3.5048 -104.719 -56.573 59.9327 8.85064 23.8747 -62.884 18.1993 3.86131 -97.0283 24.003 3.11334 8.0201 -26.9335 -14.9288 -8.46815 10.7266 -17.0641 -8.37161 
